<svg width="1080" height="1394" viewBox="0 0 1080 1394" fill="none" xmlns="http://www.w3.org/2000/svg">
<rect x="468.075" y="243.754" width="261.91" height="57.7439" rx="20.6228" transform="rotate(21.7119 468.075 243.754)" fill="#222222"/>
<path d="M115.553 1205.4L185.565 1232.26L164.419 1293.69L90.8507 1267.44L115.553 1205.4Z" fill="#989898"/>
<path fill-rule="evenodd" clip-rule="evenodd" d="M2.99901 1239.7C3.43128 1238.09 3.95838 1236.51 4.58282 1234.94C16.8027 1204.25 70.5589 1207.62 114.079 1224.95C157.599 1242.28 174.9 1267.38 162.68 1298.06C162.076 1299.58 161.389 1301.05 160.624 1302.47L2.99901 1239.7Z" fill="#989898"/>
<path d="M161.895 1299.78C163.227 1295.14 160.823 1290.24 156.334 1288.45L15.739 1232.47C11.1495 1230.64 5.92842 1232.67 3.78546 1237.12L3.64514 1237.42C3.45485 1237.81 3.29337 1238.22 3.16197 1238.64V1238.64C1.73492 1243.18 4.05364 1248.06 8.47972 1249.82L149.375 1305.93C153.864 1307.71 158.978 1305.81 161.203 1301.52V1301.52C161.491 1300.96 161.723 1300.38 161.895 1299.78V1299.78Z" fill="#989898"/>
<path d="M313.204 1284.1L243.89 1255.49L217.021 1314.64L288.502 1346.14L313.204 1284.1Z" fill="#989898"/>
<path fill-rule="evenodd" clip-rule="evenodd" d="M371.373 1386.38C372.163 1384.92 372.873 1383.4 373.497 1381.84C385.717 1351.15 344.356 1316.64 300.837 1299.32C257.317 1281.99 227.501 1288.32 215.281 1319.01C214.677 1320.53 214.166 1322.06 213.748 1323.62L371.373 1386.38Z" fill="#989898"/>
<path d="M214.67 1320.8C216.896 1316.51 222.009 1314.6 226.498 1316.39L367.093 1372.37C371.682 1374.2 374.076 1379.27 372.573 1383.97L372.474 1384.28C372.341 1384.7 372.177 1385.11 371.985 1385.5V1385.5C369.897 1389.78 364.861 1391.73 360.435 1389.97L219.539 1333.86C215.05 1332.08 212.646 1327.18 213.978 1322.53V1322.53C214.15 1321.93 214.382 1321.35 214.67 1320.8V1320.8Z" fill="#989898"/>
<path d="M443.246 281.864C447.907 270.789 460.575 265.481 471.738 269.926L696.509 359.428C707.69 363.88 713.239 376.472 708.98 387.728L560.637 779.785C556.273 791.319 543.302 797.035 531.845 792.473L292.822 697.296C281.348 692.727 275.861 679.629 280.651 668.246L443.246 281.864Z" fill="#2B452D"/>
<rect x="558.99" y="244.438" width="98.6611" height="63.2433" transform="rotate(21.7119 558.99 244.438)" fill="#EAA370"/>
<ellipse cx="581.749" cy="320.628" rx="49.3305" ry="32.5001" transform="rotate(21.7119 581.749 320.628)" fill="#EAA370"/>
<path d="M573.688 124.022C575.063 119.823 573.609 115.215 570.075 112.564L564.117 108.097C558.373 103.789 550.093 106.525 548.047 113.408L540.641 138.323C539.32 142.765 541.125 147.543 545.053 150.002L550.589 153.468C556.268 157.023 563.776 154.303 565.861 147.935L573.688 124.022Z" fill="#EAA370"/>
<path d="M722.749 183.376C724.637 179.382 728.86 177.034 733.249 177.539L740.646 178.389C747.78 179.209 751.912 186.888 748.667 193.293L736.92 216.48C734.826 220.614 730.231 222.843 725.688 221.929L719.284 220.64C712.716 219.319 709.133 212.182 711.996 206.125L722.749 183.376Z" fill="#EAA370"/>
<rect x="607.004" y="6.06519" width="185.812" height="288.72" rx="89.4753" transform="rotate(21.7119 607.004 6.06519)" fill="#F9B07B"/>
<path d="M718.648 163.572C719.963 160.721 718.802 157.177 716.056 155.655L681.725 136.634C678.979 135.113 675.687 136.191 674.373 139.042L672.986 142.048C671.566 145.128 673.044 148.954 676.152 150.241L681.663 152.524L692.892 158.384L709.464 169.052C712.242 170.84 715.765 169.825 717.141 166.839L718.648 163.572Z" fill="#55433D"/>
<path d="M702.398 205.494C702.583 203.396 701.035 201.519 698.94 201.302L682.797 199.627C680.757 199.415 678.957 200.899 678.776 202.942V202.942C678.58 205.166 680.373 207.089 682.601 207.044L684.212 207.011L690.148 207.463L697.993 208.861C700.177 209.25 702.203 207.702 702.398 205.494V205.494Z" fill="#D19A66"/>
<path d="M576.887 155.608C578.194 153.957 580.609 153.658 582.28 154.94L595.157 164.821C596.784 166.069 597.07 168.384 595.797 169.992V169.992C594.411 171.742 591.787 171.906 590.2 170.342L589.053 169.211L584.43 165.458L577.772 161.081C575.918 159.862 575.511 157.345 576.887 155.608V155.608Z" fill="#D19A66"/>
<path d="M592.192 113.218C593.196 110.244 596.476 108.468 599.516 109.25L637.525 119.034C640.565 119.817 642.215 122.863 641.21 125.837L640.151 128.973C639.065 132.187 635.362 133.949 632.219 132.748L626.648 130.617L614.464 127.155L595.095 123.511C591.848 122.901 589.987 119.742 591.04 116.627L592.192 113.218Z" fill="#55433D"/>
<rect x="604.002" y="131.396" width="29.018" height="18.5605" rx="9.28027" transform="rotate(21.7119 604.002 131.396)" fill="#664B2B"/>
<rect x="669.197" y="157.17" width="29.4861" height="20.7363" rx="10.3681" transform="rotate(21.7119 669.197 157.17)" fill="#664B2B"/>
<rect x="663.268" y="173.005" width="29.1365" height="7.51315" rx="3.75658" transform="rotate(21.7119 663.268 173.005)" fill="#D19A66"/>
<rect x="597.898" y="146.724" width="29.018" height="6.18685" rx="3.09342" transform="rotate(21.7119 597.898 146.724)" fill="#D19A66"/>
<path d="M636.983 175.928C636.96 174.043 639.152 172.995 640.604 174.197V174.197C641.121 174.625 641.415 175.264 641.406 175.934L641.109 196.248C641.009 203.087 636.269 208.979 629.613 210.539L622.671 212.165C621.761 212.378 620.807 212.088 620.17 211.404V211.404C618.817 209.952 619.517 207.581 621.441 207.099L630.513 204.825C634.005 203.949 636.504 200.879 636.654 197.281L637.113 186.273L636.983 175.928Z" fill="#D19A66"/>
<path fill-rule="evenodd" clip-rule="evenodd" d="M562.235 116.725L572.774 120.922L550.56 176.709L703.33 237.54L725.544 181.753L736.083 185.949L706.535 260.156C688.254 306.066 636.217 328.464 590.306 310.183L582.714 307.16C536.803 288.879 514.406 236.842 532.687 190.932L562.235 116.725ZM669.095 268.304L703.33 237.54L550.56 176.709L554.356 222.616L669.095 268.304Z" fill="#55433D"/>
<rect x="576.808" y="204.919" width="94.792" height="72.1799" rx="36.09" transform="rotate(21.7119 576.808 204.919)" fill="#55433D"/>
<path fill-rule="evenodd" clip-rule="evenodd" d="M595.867 230.266C596.912 240 602.441 248.422 611.195 251.908C619.949 255.393 629.754 253.077 637.204 246.726L595.867 230.266Z" fill="#9D6E60"/>
<rect x="288.381" y="678.307" width="278.408" height="65.9931" transform="rotate(21.7119 288.381 678.307)" fill="#606061"/>
<path d="M263.968 739.619L390.641 790.059L189.982 1242.16L97.9455 1205.51L263.968 739.619Z" fill="#606061"/>
<path d="M396.579 792.423L522.624 842.613L322.594 1294.96L230.557 1258.31L396.579 792.423Z" fill="#606061"/>
<path d="M443.246 281.864C447.907 270.789 460.575 265.481 471.738 269.926L696.509 359.428C707.69 363.88 713.239 376.472 708.98 387.728L560.637 779.785C556.273 791.319 543.302 797.035 531.845 792.473L292.822 697.296C281.348 692.727 275.861 679.629 280.651 668.246L443.246 281.864Z" fill="#B55C36"/>
<rect x="558.99" y="244.438" width="98.6611" height="63.2433" transform="rotate(21.7119 558.99 244.438)" fill="#EAA370"/>
<ellipse cx="581.749" cy="320.628" rx="49.3305" ry="32.5001" transform="rotate(21.7119 581.749 320.628)" fill="#EAA370"/>
<path d="M573.688 124.022C575.063 119.823 573.609 115.215 570.075 112.564L564.117 108.097C558.373 103.789 550.093 106.525 548.047 113.408L540.641 138.323C539.32 142.765 541.125 147.543 545.053 150.002L550.589 153.468C556.268 157.023 563.776 154.303 565.861 147.935L573.688 124.022Z" fill="#EAA370"/>
<path d="M722.749 183.376C724.637 179.382 728.86 177.034 733.249 177.539L740.646 178.389C747.78 179.209 751.912 186.888 748.667 193.293L736.92 216.48C734.826 220.614 730.231 222.843 725.688 221.929L719.284 220.64C712.716 219.319 709.133 212.182 711.996 206.125L722.749 183.376Z" fill="#EAA370"/>
<rect x="607.004" y="6.06519" width="185.812" height="288.72" rx="89.4753" transform="rotate(21.7119 607.004 6.06519)" fill="#F9B07B"/>
<path d="M718.648 163.572C719.963 160.721 718.802 157.177 716.056 155.655L681.725 136.634C678.979 135.113 675.687 136.191 674.373 139.042L672.986 142.048C671.566 145.128 673.044 148.954 676.152 150.241L681.663 152.524L692.892 158.384L709.464 169.052C712.242 170.84 715.765 169.825 717.141 166.839L718.648 163.572Z" fill="#55433D"/>
<path d="M702.398 205.494C702.583 203.396 701.035 201.519 698.94 201.302L682.797 199.627C680.757 199.415 678.957 200.899 678.776 202.942V202.942C678.58 205.166 680.373 207.089 682.601 207.044L684.212 207.011L690.148 207.463L697.993 208.861C700.177 209.25 702.203 207.702 702.398 205.494V205.494Z" fill="#D19A66"/>
<path d="M576.887 155.608C578.194 153.957 580.609 153.658 582.28 154.94L595.157 164.821C596.784 166.069 597.07 168.384 595.797 169.992V169.992C594.411 171.742 591.787 171.906 590.2 170.342L589.053 169.211L584.43 165.458L577.772 161.081C575.918 159.862 575.511 157.345 576.887 155.608V155.608Z" fill="#D19A66"/>
<path d="M592.192 113.218C593.196 110.244 596.476 108.468 599.516 109.25L637.525 119.034C640.565 119.817 642.215 122.863 641.21 125.837L640.151 128.973C639.065 132.187 635.362 133.949 632.219 132.748L626.648 130.617L614.464 127.155L595.095 123.511C591.848 122.901 589.987 119.742 591.04 116.627L592.192 113.218Z" fill="#55433D"/>
<rect x="604.002" y="131.396" width="29.018" height="18.5605" rx="9.28027" transform="rotate(21.7119 604.002 131.396)" fill="#664B2B"/>
<rect x="669.197" y="157.17" width="29.4861" height="20.7363" rx="10.3681" transform="rotate(21.7119 669.197 157.17)" fill="#664B2B"/>
<rect x="663.268" y="173.005" width="29.1365" height="7.51315" rx="3.75658" transform="rotate(21.7119 663.268 173.005)" fill="#D19A66"/>
<rect x="597.898" y="146.724" width="29.018" height="6.18685" rx="3.09342" transform="rotate(21.7119 597.898 146.724)" fill="#D19A66"/>
<path d="M636.983 175.928C636.96 174.043 639.152 172.995 640.604 174.197V174.197C641.121 174.625 641.415 175.264 641.406 175.934L641.109 196.248C641.009 203.087 636.269 208.979 629.613 210.539L622.671 212.165C621.761 212.378 620.807 212.088 620.17 211.404V211.404C618.817 209.952 619.517 207.581 621.441 207.099L630.513 204.825C634.005 203.949 636.504 200.879 636.654 197.281L637.113 186.273L636.983 175.928Z" fill="#D19A66"/>
<path fill-rule="evenodd" clip-rule="evenodd" d="M562.235 116.725L572.774 120.922L550.56 176.709L703.33 237.54L725.544 181.753L736.083 185.949L706.535 260.156C688.254 306.066 636.217 328.464 590.306 310.183L582.714 307.16C536.803 288.879 514.406 236.842 532.687 190.932L562.235 116.725ZM669.095 268.304L703.33 237.54L550.56 176.709L554.356 222.616L669.095 268.304Z" fill="#55433D"/>
<rect x="576.808" y="204.919" width="94.792" height="72.1799" rx="36.09" transform="rotate(21.7119 576.808 204.919)" fill="#55433D"/>
<path fill-rule="evenodd" clip-rule="evenodd" d="M595.867 230.266C596.912 240 602.441 248.422 611.195 251.908C619.949 255.393 629.754 253.077 637.204 246.726L595.867 230.266Z" fill="#9D6E60"/>
<path d="M1028.43 385.322C1032.79 383.157 1034.63 377.907 1032.57 373.495V373.495C1030.47 369.006 1025.14 367.065 1020.65 369.16L972.651 391.56C968.304 393.588 966.157 398.543 967.649 403.102L967.724 403.331C969.521 408.825 975.773 411.446 980.951 408.877L1028.43 385.322Z" fill="#D69F6D"/>
<rect width="20.3813" height="78.0297" rx="9.48306" transform="matrix(-0.514648 -0.857401 -0.857401 0.514648 1036.84 355.56)" fill="#D69F6D"/>
<rect width="20.2566" height="81.3062" rx="9.48306" transform="matrix(-0.625855 -0.77994 -0.77994 0.625855 1028.02 328.75)" fill="#D69F6D"/>
<rect width="19.4557" height="75.8645" rx="9.48307" transform="matrix(-0.735512 -0.677512 -0.677512 0.735512 1008.8 308.366)" fill="#D69F6D"/>
<rect width="21.4749" height="55.9715" rx="9.48306" transform="matrix(-0.911958 -0.410285 -0.410285 0.911958 960.992 317.066)" fill="#D69F6D"/>
<ellipse cx="41.4884" cy="32.0053" rx="41.4884" ry="32.0053" transform="matrix(-0.621998 -0.783019 -0.783019 0.621998 1002.51 391.918)" fill="#D69F6D"/>
<rect width="239.292" height="101.045" rx="46.3033" transform="matrix(0.562721 0.826647 -0.833965 0.551818 708.74 339.896)" fill="black"/>
<path fill-rule="evenodd" clip-rule="evenodd" d="M894.773 360.764L957.86 437.496L802.466 565.255C782.712 581.496 753.533 578.648 737.293 558.894L733.018 553.696C716.778 533.942 719.626 504.763 739.379 488.522L894.773 360.764Z" fill="#222222"/>
<rect x="958.347" y="443.01" width="106.444" height="18.5605" rx="9.28027" transform="rotate(-129.426 958.347 443.01)" fill="#606061"/>
<path d="M140.189 705.606C137.451 709.634 138.427 715.11 142.388 717.943V717.943C146.417 720.825 152.019 719.895 154.901 715.866L185.716 672.785C188.507 668.884 187.944 663.512 184.406 660.273L184.228 660.111C179.965 656.208 173.232 656.994 169.982 661.774L140.189 705.606Z" fill="#D69F6D"/>
<rect width="20.3813" height="78.0297" rx="9.48306" transform="matrix(0.86933 0.494232 0.494232 -0.86933 147.471 735.665)" fill="#D69F6D"/>
<rect width="20.2566" height="81.3062" rx="9.48306" transform="matrix(0.928174 0.372147 0.372147 -0.928174 168.32 754.689)" fill="#D69F6D"/>
<rect width="19.4557" height="75.8645" rx="9.48306" transform="matrix(0.973409 0.229075 0.229075 -0.973409 195.072 763.01)" fill="#D69F6D"/>
<rect width="21.4749" height="55.9715" rx="9.48307" transform="matrix(0.995909 -0.0903585 -0.0903585 -0.995909 232.45 731.956)" fill="#D69F6D"/>
<ellipse cx="41.4884" cy="32.0053" rx="41.4884" ry="32.0053" transform="matrix(0.926326 0.376724 0.376724 -0.926326 159.531 687.132)" fill="#D69F6D"/>
<rect width="315.165" height="101.045" rx="46.3033" transform="matrix(-0.673526 0.739164 0.747944 0.663762 435.585 235.256)" fill="black"/>
<path fill-rule="evenodd" clip-rule="evenodd" d="M167.211 641.157L259.5 677.906L333.921 491.007C343.382 467.249 331.791 440.32 308.032 430.859L301.78 428.369C278.021 418.909 251.092 430.5 241.632 454.258L167.211 641.157Z" fill="#222222"/>
<rect width="107.239" height="18.5605" rx="9.28027" transform="matrix(-0.929055 -0.369941 -0.369941 0.929055 267.146 669.852)" fill="#606061"/>
<path fill-rule="evenodd" clip-rule="evenodd" d="M512.472 283.63C511.08 288.144 511.233 293.249 513.567 298.275L541.92 359.331L376.992 773.525L277.149 733.768C265.687 729.204 260.196 716.128 264.964 704.75L443.194 279.364C447.843 268.269 460.524 262.944 471.7 267.395L512.472 283.63ZM660.948 342.751C658.841 347.018 655.185 350.641 649.981 352.676L585.6 377.852L421.06 791.072L517.113 829.32C528.559 833.877 541.519 828.177 545.894 816.661L709.702 385.532C713.981 374.271 708.434 361.66 697.242 357.203L660.948 342.751Z" fill="black"/>
<mask id="path-66-inside-1_118_466" fill="white">
<path fill-rule="evenodd" clip-rule="evenodd" d="M683.218 120.282L713.436 132.315C713.419 132.308 713.402 132.301 713.385 132.294L683.269 120.303C683.252 120.296 683.235 120.289 683.218 120.282ZM717.178 165.363L657.783 141.712L648.354 165.392C645.134 173.477 649.079 182.642 657.164 185.861L687.28 197.853C695.365 201.073 704.53 197.128 707.749 189.043L717.178 165.363Z"/>
</mask>
<path d="M683.218 120.282L685.083 115.554L681.338 125.005L683.218 120.282ZM713.436 132.315L711.555 137.037L715.332 127.599L713.436 132.315ZM713.385 132.294L715.265 127.572L713.385 132.294ZM683.269 120.303L681.389 125.025L683.269 120.303ZM717.178 165.363L721.901 167.243L723.781 162.521L719.059 160.641L717.178 165.363ZM657.783 141.712L659.663 136.99L654.941 135.11L653.061 139.832L657.783 141.712ZM657.164 185.861L655.284 190.584L657.164 185.861ZM687.28 197.853L689.161 193.131L687.28 197.853ZM681.338 125.005L711.555 137.037L715.316 127.592L685.099 115.56L681.338 125.005ZM711.505 137.017C711.516 137.022 711.528 137.026 711.539 137.031L715.332 127.599C715.31 127.59 715.288 127.581 715.265 127.572L711.505 137.017ZM681.389 125.025L711.505 137.017L715.265 127.572L685.15 115.58L681.389 125.025ZM681.354 125.011C681.365 125.016 681.377 125.02 681.389 125.025L685.15 115.58C685.127 115.571 685.105 115.562 685.083 115.554L681.354 125.011ZM719.059 160.641L659.663 136.99L655.903 146.435L715.298 170.086L719.059 160.641ZM653.076 167.273L662.505 143.593L653.061 139.832L643.631 163.512L653.076 167.273ZM659.045 181.139C653.568 178.958 650.896 172.75 653.076 167.273L643.631 163.512C639.373 174.205 644.59 186.326 655.284 190.584L659.045 181.139ZM689.161 193.131L659.045 181.139L655.284 190.584L685.4 202.576L689.161 193.131ZM703.027 187.162C700.846 192.639 694.638 195.312 689.161 193.131L685.4 202.576C696.093 206.834 708.214 201.617 712.472 190.923L703.027 187.162ZM712.456 163.483L703.027 187.162L712.472 190.923L721.901 167.243L712.456 163.483Z" fill="black" mask="url(#path-66-inside-1_118_466)"/>
<mask id="path-68-inside-2_118_466" fill="white">
<path fill-rule="evenodd" clip-rule="evenodd" d="M614.254 92.8214L644.45 104.845C644.437 104.84 644.423 104.835 644.41 104.829L614.294 92.8374C614.28 92.832 614.267 92.8267 614.254 92.8214ZM648.203 137.898L588.808 114.247L579.379 137.927C576.159 146.012 580.104 155.177 588.189 158.396L618.305 170.388C626.39 173.607 635.555 169.663 638.774 161.578L648.203 137.898Z"/>
</mask>
<path d="M614.254 92.8214L616.121 88.0939L612.373 97.5439L614.254 92.8214ZM644.45 104.845L642.569 109.568L646.343 100.128L644.45 104.845ZM648.203 137.898L652.925 139.778L654.806 135.056L650.083 133.175L648.203 137.898ZM588.808 114.247L590.688 109.525L585.966 107.644L584.085 112.367L588.808 114.247ZM638.774 161.578L634.051 159.697L638.774 161.578ZM612.373 97.5439L642.569 109.568L646.33 100.123L616.134 88.0989L612.373 97.5439ZM642.529 109.552C642.538 109.555 642.548 109.559 642.557 109.563L646.343 100.128C646.325 100.121 646.308 100.114 646.29 100.107L642.529 109.552ZM612.413 97.5598L642.529 109.552L646.29 100.107L616.174 88.1149L612.413 97.5598ZM612.386 97.5489C612.395 97.5526 612.404 97.5562 612.413 97.5598L616.174 88.1149C616.157 88.1079 616.139 88.1009 616.121 88.0939L612.386 97.5489ZM650.083 133.175L590.688 109.525L586.927 118.97L646.323 142.62L650.083 133.175ZM584.101 139.807L593.53 116.128L584.085 112.367L574.656 136.047L584.101 139.807ZM590.069 153.674C584.592 151.493 581.92 145.285 584.101 139.807L574.656 136.047C570.398 146.74 575.615 158.86 586.309 163.119L590.069 153.674ZM620.185 165.665L590.069 153.674L586.309 163.119L616.424 175.11L620.185 165.665ZM634.051 159.697C631.871 165.174 625.662 167.846 620.185 165.665L616.424 175.11C627.118 179.368 639.238 174.151 643.496 163.458L634.051 159.697ZM643.481 136.017L634.051 159.697L643.496 163.458L652.925 139.778L643.481 136.017Z" fill="black" mask="url(#path-68-inside-2_118_466)"/>
<rect x="648.203" y="137.898" width="10.3114" height="6.18685" transform="rotate(21.7119 648.203 137.898)" fill="black"/>
<path d="M566.276 110.449L588.807 114.247L587.464 118.115L564.934 114.317L566.276 110.449Z" fill="black"/>
<path d="M738.427 179.334L717.178 165.363L715.534 169.121L736.782 183.092L738.427 179.334Z" fill="black"/>
<circle cx="530.99" cy="559.595" r="8.24913" transform="rotate(21.7119 530.99 559.595)" fill="#7B7B7B"/>
<circle cx="517.258" cy="594.082" r="8.24913" transform="rotate(21.7119 517.258 594.082)" fill="#7B7B7B"/>
<circle cx="503.525" cy="628.57" r="8.24913" transform="rotate(21.7119 503.525 628.57)" fill="#7B7B7B"/>
</svg>
