<svg width="100" height="75" viewBox="0 0 100 75" fill="none" xmlns="http://www.w3.org/2000/svg">
<rect x="78.469" y="64.661" width="10.3447" height="7.94943" rx="3.97471" transform="rotate(-72.0328 78.469 64.661)" fill="#6AB872"/>
<rect width="10.3447" height="7.94942" rx="3.97471" transform="matrix(-0.308473 -0.951233 -0.951233 0.308473 21.8603 63.9444)" fill="#6AB872"/>
<path d="M91.5029 56.7318C92.1373 56.8495 92.5881 57.4595 92.5146 58.1007V58.1007C92.4403 58.7478 91.8602 59.1829 91.2189 59.0725L76.4865 56.5367C75.898 56.4354 75.4356 55.9356 75.3739 55.3339V55.3339C75.2888 54.5047 75.984 53.8534 76.7939 54.0036L91.5029 56.7318Z" fill="#63A66A"/>
<rect width="2.73712" height="22.1593" rx="1.36856" transform="matrix(-0.18504 0.983048 -0.975853 -0.217364 97.996 61.3993)" fill="#63A66A"/>
<rect width="2.52796" height="20.2441" rx="1.26398" transform="matrix(-0.280805 0.959645 -0.962756 -0.27067 95.9133 64.7502)" fill="#63A66A"/>
<rect width="2.42204" height="15.6633" rx="1.21102" transform="matrix(-0.37725 0.925638 -0.941766 -0.337225 88.8337 66.1769)" fill="#63A66A"/>
<ellipse cx="4.96854" cy="7.37923" rx="4.96854" ry="7.37923" transform="matrix(-0.233659 0.972409 -0.969219 -0.24595 84.5857 56.0183)" fill="#63A66A"/>
<circle cx="1.7892" cy="1.7892" r="1.7892" transform="matrix(-1 0 0 1 95.2351 56.3471)" fill="#6AB872"/>
<circle cx="1.7892" cy="1.7892" r="1.7892" transform="matrix(-1 0 0 1 90.941 66.0088)" fill="#6AB872"/>
<circle cx="1.7892" cy="1.7892" r="1.7892" transform="matrix(-1 0 0 1 99.887 60.999)" fill="#6AB872"/>
<circle cx="1.7892" cy="1.7892" r="1.7892" transform="matrix(-1 0 0 1 97.74 64.5774)" fill="#6AB872"/>
<rect width="27.6593" height="9.00478" rx="3.92708" transform="matrix(-0.582661 0.812715 0.812715 0.582661 77.7446 28.6644)" fill="#548E5A"/>
<rect x="84.5219" y="31.6499" width="31.7181" height="8.76331" rx="3.92708" transform="rotate(104.537 84.5219 31.6499)" fill="#63A66A"/>
<path d="M8.38419 56.5111C7.74977 56.6288 7.29895 57.2388 7.37254 57.88V57.88C7.44681 58.5271 8.02689 58.9622 8.66818 58.8518L23.4006 56.316C23.9891 56.2147 24.4515 55.7149 24.5132 55.1132V55.1132C24.5983 54.284 23.9031 53.6327 23.0932 53.7829L8.38419 56.5111Z" fill="#63A66A"/>
<rect width="2.73712" height="22.1593" rx="1.36856" transform="matrix(0.18504 0.983048 0.975853 -0.217364 1.89106 61.1786)" fill="#63A66A"/>
<rect width="2.52796" height="20.2441" rx="1.26398" transform="matrix(0.280805 0.959645 0.962756 -0.27067 3.97377 64.5295)" fill="#63A66A"/>
<rect width="2.42204" height="15.6633" rx="1.21102" transform="matrix(0.37725 0.925638 0.941766 -0.337225 11.0534 65.9562)" fill="#63A66A"/>
<ellipse cx="4.96854" cy="7.37923" rx="4.96854" ry="7.37923" transform="matrix(0.233659 0.972409 0.969219 -0.24595 15.3014 55.7977)" fill="#63A66A"/>
<circle cx="6.44108" cy="57.9156" r="1.7892" fill="#6AB872"/>
<circle cx="10.7352" cy="67.5773" r="1.7892" fill="#6AB872"/>
<circle cx="1.7892" cy="62.5675" r="1.7892" fill="#6AB872"/>
<circle cx="3.93621" cy="66.146" r="1.7892" fill="#6AB872"/>
<rect x="22.1424" y="28.4438" width="27.6593" height="9.00478" rx="3.92708" transform="rotate(54.3621 22.1424 28.4438)" fill="#548E5A"/>
<rect width="31.7181" height="8.76331" rx="3.92708" transform="matrix(0.251005 0.967986 0.967986 -0.251005 15.3652 31.4293)" fill="#63A66A"/>
<path d="M72.3778 38.4594C72.3778 50.4315 66.7206 56.254 50.6423 56.254C34.564 56.254 27.5896 50.4315 27.5896 38.4594C27.5896 26.4872 34.564 12.899 50.6423 12.899C66.7206 12.899 72.3778 26.4872 72.3778 38.4594Z" fill="#6AB872"/>
<path d="M68.4364 38.6862C68.4364 48.3362 63.8201 53.0292 50.7002 53.0292C37.5803 53.0292 31.8892 48.3362 31.8892 38.6862C31.8892 29.0363 37.5803 38.6862 50.7002 38.6862C63.8201 38.6862 68.4364 29.0363 68.4364 38.6862Z" fill="#D0C777"/>
<ellipse cx="50.1628" cy="20.2443" rx="22.5733" ry="15.228" fill="#6AB872"/>
<path d="M47.6547 8.7054C47.6547 12.9019 44.0912 15.197 39.2345 15.197C34.3779 15.197 30.8143 13.0356 30.8143 8.8391C30.8143 4.64255 34.3779 0 39.2345 0C44.0912 0 47.6547 4.50885 47.6547 8.7054Z" fill="#6AB872"/>
<ellipse cx="39.0554" cy="8.60552" rx="6.80781" ry="6.45568" fill="#639AA6"/>
<circle cx="38.6204" cy="8.82998" r="4.76547" fill="#23383D"/>
<circle cx="40.4544" cy="9.68101" r="2.99544" fill="#E8E4E4"/>
<path d="M52.3126 8.7054C52.3126 12.9019 55.8762 15.197 60.7328 15.197C65.5895 15.197 69.153 13.0356 69.153 8.8391C69.153 4.64255 65.5895 0 60.7328 0C55.8762 0 52.3126 4.50885 52.3126 8.7054Z" fill="#6AB872"/>
<ellipse cx="6.80781" cy="6.45568" rx="6.80781" ry="6.45568" transform="matrix(-1 0 0 1 68.0781 2.14984)" fill="#639AA6"/>
<circle cx="4.76547" cy="4.76547" r="4.76547" transform="matrix(-1 0 0 1 66.1123 4.06451)" fill="#23383D"/>
<circle cx="2.99544" cy="2.99544" r="2.99544" transform="matrix(-1 0 0 1 62.5085 6.68558)" fill="#E8E4E4"/>
<path fill-rule="evenodd" clip-rule="evenodd" d="M50.1628 35.597C62.6297 35.597 72.7361 29.4431 72.7361 21.8518C72.7361 20.9574 72.5958 20.0829 72.3279 19.2361C71.0738 21.8364 68.4127 23.6306 65.3324 23.6306H35.3516C32.095 23.6306 29.3068 21.6251 28.1548 18.7817C27.7849 19.7689 27.5896 20.7964 27.5896 21.8518C27.5896 29.4431 37.696 35.597 50.1628 35.597Z" fill="#D0C777"/>
<path d="M40.8469 23.6482H58.0455L56.254 25.0814H42.6384L40.8469 23.6482Z" fill="#E2AAAA"/>
<rect width="8.29446" height="16.3029" rx="3.58306" transform="matrix(-0.986666 0.162759 0.162759 0.986666 37.1986 35.1479)" fill="#63A66A"/>
<rect width="7.13356" height="14.5221" rx="3.56678" transform="matrix(-0.764556 0.644557 0.644557 0.764556 35.5165 44.2552)" fill="#63A66A"/>
<rect width="8.21185" height="6.11675" rx="3.05837" transform="matrix(-0.911532 -0.41123 -0.41123 0.911532 43.3231 59.631)" fill="#6AB872"/>
<rect width="8.21185" height="6.11675" rx="3.05837" transform="matrix(-0.863167 0.50492 0.50492 0.863167 43.6354 54.1042)" fill="#6AB872"/>
<path d="M32.9776 61.5239C32.6669 62.0071 32.8006 62.6501 33.2781 62.9693V62.9693C33.7617 63.2926 34.4158 63.1626 34.7391 62.679L39.8337 55.058C40.1427 54.5958 40.0712 53.9778 39.6648 53.5983V53.5983C39.1475 53.1153 38.3192 53.2186 37.9364 53.8139L32.9776 61.5239Z" fill="#63A66A"/>
<rect width="2.25635" height="13.1866" rx="1.12817" transform="matrix(0.925869 0.377845 0.377845 -0.925869 33.8918 68.6883)" fill="#63A66A"/>
<path d="M39.7272 66.085C39.6348 66.7067 40.064 67.2856 40.6858 67.3779V67.3779C41.3075 67.4702 41.8864 67.0411 41.9787 66.4193L43.3778 56.9975C43.4701 56.3757 43.0409 55.7969 42.4192 55.7045V55.7045C41.7974 55.6122 41.2185 56.0414 41.1262 56.6632L39.7272 66.085Z" fill="#63A66A"/>
<path d="M39.603 60.2253C41.7625 60.2845 43.5541 58.8372 43.6047 56.9927C43.6552 55.1482 42.8519 53.0056 40.6924 52.9464C38.5328 52.8873 36.3394 55.3548 36.2888 57.1993C36.2383 59.0438 37.4435 60.1661 39.603 60.2253Z" fill="#63A66A"/>
<circle cx="1.28322" cy="1.28322" r="1.28322" transform="matrix(-0.771757 -0.635918 -0.635918 0.771757 34.7853 63.2606)" fill="#6AB872"/>
<rect width="2.20852" height="9.70696" rx="1.10426" transform="matrix(0.76772 -0.640786 -0.640786 -0.76772 45.8718 60.5573)" fill="#63A66A"/>
<circle cx="1.43322" cy="1.43322" r="1.43322" transform="matrix(-0.253212 -0.967411 -0.967411 0.253212 48.5255 60.8852)" fill="#6AB872"/>
<circle cx="1.43322" cy="1.43322" r="1.43322" transform="matrix(-0.771757 -0.635918 -0.635918 0.771757 42.8487 67.7685)" fill="#6AB872"/>
<circle cx="1.43322" cy="1.43322" r="1.43322" transform="matrix(-0.771757 -0.635918 -0.635918 0.771757 36.7576 69.3989)" fill="#6AB872"/>
<rect x="62.8091" y="35.4723" width="8.29446" height="16.3029" rx="3.58306" transform="rotate(9.36707 62.8091 35.4723)" fill="#63A66A"/>
<rect x="64.4913" y="44.5795" width="7.13356" height="14.5221" rx="3.56678" transform="rotate(40.1325 64.4913 44.5795)" fill="#63A66A"/>
<rect x="56.6846" y="59.9553" width="8.21185" height="6.11675" rx="3.05837" transform="rotate(-24.2821 56.6846 59.9553)" fill="#6AB872"/>
<rect x="56.3724" y="54.4285" width="8.21185" height="6.11675" rx="3.05837" transform="rotate(30.326 56.3724 54.4285)" fill="#6AB872"/>
<path d="M67.0302 61.8483C67.3409 62.3314 67.2072 62.9744 66.7297 63.2937V63.2937C66.2461 63.6169 65.592 63.487 65.2687 63.0034L60.1741 55.3824C59.8651 54.9202 59.9366 54.3021 60.343 53.9227V53.9227C60.8602 53.4397 61.6886 53.543 62.0714 54.1382L67.0302 61.8483Z" fill="#63A66A"/>
<rect x="66.116" y="69.0127" width="2.25635" height="13.1866" rx="1.12817" transform="rotate(157.8 66.116 69.0127)" fill="#63A66A"/>
<path d="M60.2807 66.4093C60.373 67.031 59.9439 67.6099 59.3221 67.7022V67.7022C58.7003 67.7946 58.1215 67.3654 58.0291 66.7436L56.6301 57.3218C56.5378 56.7001 56.9669 56.1212 57.5887 56.0289V56.0289C58.2105 55.9365 58.7893 56.3657 58.8817 56.9875L60.2807 66.4093Z" fill="#63A66A"/>
<path d="M60.4048 60.5496C58.2453 60.6088 56.4537 59.1615 56.4031 57.317C56.3526 55.4725 57.1559 53.3299 59.3154 53.2707C61.4749 53.2116 63.6684 55.6791 63.7189 57.5236C63.7695 59.3681 62.5643 60.4904 60.4048 60.5496Z" fill="#63A66A"/>
<circle cx="67.0289" cy="63.7593" r="1.28322" transform="rotate(-39.4881 67.0289 63.7593)" fill="#6AB872"/>
<rect x="54.136" y="60.8817" width="2.20852" height="9.70696" rx="1.10426" transform="rotate(-140.15 54.136 60.8817)" fill="#63A66A"/>
<circle cx="53.2317" cy="60.1859" r="1.43322" transform="rotate(-75.3323 53.2317 60.1859)" fill="#6AB872"/>
<circle cx="59.1765" cy="68.2876" r="1.43322" transform="rotate(-39.4881 59.1765 68.2876)" fill="#6AB872"/>
<circle cx="65.2677" cy="69.9179" r="1.43322" transform="rotate(-39.4881 65.2677 69.9179)" fill="#6AB872"/>
</svg>
