<svg width="1398" height="1536" viewBox="0 0 1398 1536" fill="none" xmlns="http://www.w3.org/2000/svg">
<rect width="291.066" height="84.4486" rx="42.2243" transform="matrix(-0.654381 0.756165 0.756165 0.654381 637.433 329.192)" fill="#2B452D"/>
<rect x="544.592" y="538.605" width="254.105" height="83.1011" rx="41.5506" transform="rotate(110.87 544.592 538.605)" fill="#63A66A"/>
<path d="M325.416 1288.75L395.523 1314.52L375.332 1376L301.691 1350.89L325.416 1288.75Z" fill="#D3D3D3"/>
<path fill-rule="evenodd" clip-rule="evenodd" d="M213.804 1324.51C214.212 1322.9 214.714 1321.31 215.314 1319.74C227.05 1289 280.636 1291.6 324.224 1308.24C367.812 1324.89 385.398 1349.64 373.662 1380.37C373.081 1381.89 372.418 1383.36 371.676 1384.79L213.804 1324.51Z" fill="#D3D3D3"/>
<path d="M372.904 1382.09C374.165 1377.45 371.701 1372.6 367.205 1370.89L226.39 1317.12C221.793 1315.36 216.622 1317.46 214.55 1321.93L214.415 1322.22C214.231 1322.62 214.076 1323.03 213.951 1323.44V1323.44C212.594 1327.99 214.972 1332.82 219.405 1334.51L360.522 1388.39C365.018 1390.11 370.084 1388.14 372.239 1383.84V1383.84C372.518 1383.28 372.741 1382.69 372.904 1382.09V1382.09Z" fill="#D3D3D3"/>
<path d="M523.377 1364.34L453.94 1336.82L428.016 1396.11L499.652 1426.47L523.377 1364.34Z" fill="#D3D3D3"/>
<path fill-rule="evenodd" clip-rule="evenodd" d="M582.756 1465.38C583.522 1463.91 584.207 1462.39 584.807 1460.82C596.543 1430.09 554.863 1396.31 511.275 1379.66C467.687 1363.02 438.081 1369.75 426.345 1400.49C425.764 1402.01 425.278 1403.55 424.883 1405.1L582.756 1465.38Z" fill="#D3D3D3"/>
<path d="M425.762 1402.28C427.917 1397.97 432.983 1396 437.479 1397.72L578.295 1451.49C582.891 1453.24 585.347 1458.26 583.916 1462.96L583.823 1463.27C583.695 1463.69 583.538 1464.1 583.353 1464.49V1464.49C581.334 1468.79 576.345 1470.8 571.912 1469.11L430.796 1415.22C426.299 1413.51 423.836 1408.66 425.096 1404.02V1404.02C425.26 1403.42 425.482 1402.83 425.762 1402.28V1402.28Z" fill="#D3D3D3"/>
<rect x="490.088" y="761.354" width="277.306" height="65.7317" transform="rotate(20.8985 490.088 761.354)" fill="#4C7A84"/>
<path d="M466.641 822.762L593.514 871.206L400.062 1324.31L307.881 1289.11L466.641 822.762Z" fill="#4C7A84"/>
<path d="M599.461 873.477L725.704 921.681L532.882 1375.02L440.701 1339.82L599.461 873.477Z" fill="#4C7A84"/>
<rect x="881.554" y="420.327" width="256.352" height="92.2399" rx="46.1199" transform="rotate(49.0018 881.554 420.327)" fill="#2B452D"/>
<rect x="1166.16" y="515.206" width="244.274" height="83.0222" rx="41.5111" transform="rotate(139.234 1166.16 515.206)" fill="#63A66A"/>
<path d="M638.718 364.332C643.203 353.236 655.745 347.771 666.926 352.04L892.05 437.999C903.248 442.275 908.953 454.738 904.87 466.008L762.674 858.571C758.491 870.119 745.653 875.996 734.178 871.614L494.78 780.204C483.288 775.816 477.637 762.849 482.247 751.444L638.718 364.332Z" fill="#2B452D"/>
<rect x="753.462" y="325.422" width="98.2704" height="62.9929" transform="rotate(20.8985 753.462 325.422)" fill="#EAA370"/>
<ellipse cx="777.207" cy="400.98" rx="49.1352" ry="32.3713" transform="rotate(20.8985 777.207 400.98)" fill="#EAA370"/>
<path d="M766.399 205.285C767.708 201.084 766.196 196.516 762.638 193.926L756.642 189.561C750.859 185.351 742.653 188.194 740.712 195.078L733.688 219.996C732.436 224.439 734.301 229.171 738.247 231.565L743.81 234.938C749.517 238.399 756.956 235.584 758.942 229.213L766.399 205.285Z" fill="#EAA370"/>
<path d="M915.693 262.291C917.517 258.286 921.69 255.888 926.068 256.329L933.448 257.071C940.564 257.787 944.788 265.376 941.647 271.801L930.275 295.06C928.248 299.207 923.703 301.491 919.166 300.645L912.77 299.453C906.209 298.229 902.54 291.173 905.306 285.099L915.693 262.291Z" fill="#EAA370"/>
<rect x="797.912" y="87.3368" width="185.076" height="287.576" rx="89.121" transform="rotate(20.8985 797.912 87.3368)" fill="#F9B07B"/>
<path d="M911.329 242.625C912.598 239.767 911.392 236.253 908.636 234.777L874.175 216.319C871.419 214.843 868.156 215.962 866.887 218.82L865.549 221.834C864.177 224.922 865.704 228.711 868.817 229.949L874.338 232.145L885.604 237.822L902.26 248.212C905.052 249.954 908.546 248.893 909.875 245.9L911.329 242.625Z" fill="#55433D"/>
<path d="M895.738 284.607C895.893 282.515 894.324 280.668 892.235 280.481L876.133 279.041C874.098 278.859 872.327 280.363 872.176 282.4V282.4C872.012 284.617 873.825 286.507 876.043 286.43L877.647 286.375L883.566 286.741L891.399 288.022C893.579 288.379 895.575 286.808 895.738 284.607V284.607Z" fill="#D19A66"/>
<path d="M770.031 236.698C771.31 235.036 773.711 234.704 775.393 235.957L788.357 245.615C789.995 246.835 790.313 249.137 789.068 250.756V250.756C787.712 252.519 785.101 252.719 783.499 251.184L782.34 250.074L777.683 246.402L770.99 242.136C769.126 240.949 768.685 238.448 770.031 236.698V236.698Z" fill="#D19A66"/>
<path d="M784.674 194.264C785.633 191.288 788.874 189.472 791.913 190.208L829.906 199.415C832.945 200.152 834.631 203.162 833.672 206.138L832.661 209.276C831.625 212.492 827.962 214.3 824.815 213.148L819.236 211.105L807.053 207.829L787.711 204.474C784.469 203.912 782.571 200.792 783.575 197.675L784.674 194.264Z" fill="#55433D"/>
<rect x="796.693" y="212.201" width="28.903" height="18.487" rx="9.24352" transform="rotate(20.8985 796.693 212.201)" fill="#664B2B"/>
<rect x="861.989" y="236.949" width="29.3693" height="20.6542" rx="10.3271" transform="rotate(20.8985 861.989 236.949)" fill="#664B2B"/>
<rect x="856.308" y="252.803" width="29.0211" height="7.4834" rx="3.7417" transform="rotate(20.8985 856.308 252.803)" fill="#D19A66"/>
<rect x="790.832" y="227.553" width="28.903" height="6.16235" rx="3.08117" transform="rotate(20.8985 790.832 227.553)" fill="#D19A66"/>
<path d="M830.171 256.086C830.121 254.209 832.289 253.134 833.752 254.311V254.311C834.273 254.729 834.576 255.362 834.575 256.03L834.567 276.265C834.564 283.078 829.927 289.013 823.319 290.661L816.429 292.379C815.526 292.604 814.571 292.328 813.927 291.656V291.656C812.56 290.229 813.223 287.858 815.133 287.35L824.136 284.957C827.601 284.036 830.046 280.943 830.145 277.357L830.446 266.387L830.171 256.086Z" fill="#D19A66"/>
<path fill-rule="evenodd" clip-rule="evenodd" d="M754.889 198.18L765.445 202.211L744.11 258.085L744.11 258.085L744.11 258.085L748.539 303.752L863.458 347.632L897.119 316.509L897.119 316.509L918.454 260.635L929.01 264.665L900.631 338.989C883.073 384.971 831.564 408.013 785.582 390.456L777.977 387.552C731.995 369.995 708.952 318.486 726.51 272.504L754.889 198.18Z" fill="#55433D"/>
<rect x="770.65" y="285.81" width="94.4166" height="71.8941" rx="35.947" transform="rotate(20.8985 770.65 285.81)" fill="#55433D"/>
<path fill-rule="evenodd" clip-rule="evenodd" d="M789.989 310.785C791.168 320.464 796.794 328.774 805.561 332.121C814.328 335.469 824.061 333.024 831.391 326.593L789.989 310.785Z" fill="#9D6E60"/>
<path d="M638.718 364.332C643.203 353.236 655.745 347.771 666.926 352.04L892.05 437.999C903.248 442.275 908.953 454.738 904.87 466.008L762.674 858.571C758.491 870.119 745.653 875.996 734.178 871.614L494.78 780.204C483.288 775.816 477.637 762.849 482.247 751.444L638.718 364.332Z" fill="#2B452D"/>
<rect x="753.462" y="325.422" width="98.2704" height="62.9929" transform="rotate(20.8985 753.462 325.422)" fill="#EAA370"/>
<ellipse cx="777.207" cy="400.98" rx="49.1352" ry="32.3713" transform="rotate(20.8985 777.207 400.98)" fill="#EAA370"/>
<path d="M766.399 205.285C767.708 201.084 766.196 196.516 762.638 193.926L756.642 189.561C750.859 185.351 742.653 188.194 740.712 195.078L733.688 219.996C732.436 224.439 734.301 229.171 738.247 231.565L743.81 234.938C749.517 238.399 756.956 235.584 758.942 229.213L766.399 205.285Z" fill="#EAA370"/>
<path d="M915.693 262.291C917.517 258.286 921.69 255.888 926.068 256.329L933.448 257.071C940.564 257.787 944.788 265.376 941.647 271.801L930.275 295.06C928.248 299.207 923.703 301.491 919.166 300.645L912.77 299.453C906.209 298.229 902.54 291.173 905.306 285.099L915.693 262.291Z" fill="#EAA370"/>
<rect x="797.912" y="87.3368" width="185.076" height="287.576" rx="89.121" transform="rotate(20.8985 797.912 87.3368)" fill="#F9B07B"/>
<path d="M911.329 242.625C912.598 239.767 911.392 236.253 908.636 234.777L874.175 216.319C871.419 214.843 868.156 215.962 866.887 218.82L865.549 221.834C864.177 224.922 865.704 228.711 868.817 229.949L874.338 232.145L885.604 237.822L902.26 248.212C905.052 249.954 908.546 248.893 909.875 245.9L911.329 242.625Z" fill="#55433D"/>
<path d="M895.738 284.607C895.893 282.515 894.324 280.668 892.235 280.481L876.133 279.041C874.098 278.859 872.327 280.363 872.176 282.4V282.4C872.012 284.617 873.825 286.507 876.043 286.43L877.647 286.375L883.566 286.741L891.399 288.022C893.579 288.379 895.575 286.808 895.738 284.607V284.607Z" fill="#D19A66"/>
<path d="M770.031 236.698C771.31 235.036 773.711 234.704 775.393 235.957L788.357 245.615C789.995 246.835 790.313 249.137 789.068 250.756V250.756C787.712 252.519 785.101 252.719 783.499 251.184L782.34 250.074L777.683 246.402L770.99 242.136C769.126 240.949 768.685 238.448 770.031 236.698V236.698Z" fill="#D19A66"/>
<path d="M784.674 194.264C785.633 191.288 788.874 189.472 791.913 190.208L829.906 199.415C832.945 200.152 834.631 203.162 833.672 206.138L832.661 209.276C831.625 212.492 827.962 214.3 824.815 213.148L819.236 211.105L807.053 207.829L787.711 204.474C784.469 203.912 782.571 200.792 783.575 197.675L784.674 194.264Z" fill="#55433D"/>
<rect x="796.693" y="212.201" width="28.903" height="18.487" rx="9.24352" transform="rotate(20.8985 796.693 212.201)" fill="#664B2B"/>
<rect x="861.989" y="236.949" width="29.3693" height="20.6542" rx="10.3271" transform="rotate(20.8985 861.989 236.949)" fill="#664B2B"/>
<rect x="856.308" y="252.803" width="29.0211" height="7.4834" rx="3.7417" transform="rotate(20.8985 856.308 252.803)" fill="#D19A66"/>
<rect x="790.832" y="227.553" width="28.903" height="6.16235" rx="3.08117" transform="rotate(20.8985 790.832 227.553)" fill="#D19A66"/>
<path d="M830.171 256.086C830.121 254.209 832.289 253.134 833.752 254.311V254.311C834.273 254.729 834.576 255.362 834.575 256.03L834.567 276.265C834.564 283.078 829.927 289.013 823.319 290.661L816.429 292.379C815.526 292.604 814.571 292.328 813.927 291.656V291.656C812.56 290.229 813.223 287.858 815.133 287.35L824.136 284.957C827.601 284.036 830.046 280.943 830.145 277.357L830.446 266.387L830.171 256.086Z" fill="#D19A66"/>
<path fill-rule="evenodd" clip-rule="evenodd" d="M754.889 198.18L765.445 202.211L744.11 258.085L744.11 258.085L744.11 258.085L748.539 303.752L863.458 347.632L897.119 316.509L897.119 316.509L918.454 260.635L929.01 264.665L900.631 338.989C883.073 384.971 831.564 408.013 785.582 390.456L777.977 387.552C731.995 369.995 708.952 318.486 726.51 272.504L754.889 198.18Z" fill="#55433D"/>
<rect x="770.65" y="285.81" width="94.4166" height="71.8941" rx="35.947" transform="rotate(20.8985 770.65 285.81)" fill="#55433D"/>
<path fill-rule="evenodd" clip-rule="evenodd" d="M789.989 310.785C791.168 320.464 796.794 328.774 805.561 332.121C814.328 335.469 824.061 333.024 831.391 326.593L789.989 310.785Z" fill="#9D6E60"/>
<path d="M638.718 364.332C643.203 353.236 655.745 347.771 666.926 352.04L892.05 437.999C903.248 442.275 908.953 454.738 904.87 466.008L762.674 858.571C758.491 870.119 745.653 875.996 734.178 871.614L494.78 780.204C483.288 775.816 477.637 762.849 482.247 751.444L638.718 364.332Z" fill="#2B452D"/>
<rect x="753.462" y="325.422" width="98.2704" height="62.9929" transform="rotate(20.8985 753.462 325.422)" fill="#EAA370"/>
<ellipse cx="777.207" cy="400.98" rx="49.1352" ry="32.3713" transform="rotate(20.8985 777.207 400.98)" fill="#EAA370"/>
<path d="M766.399 205.285C767.708 201.084 766.196 196.516 762.638 193.926L756.642 189.561C750.859 185.351 742.653 188.194 740.712 195.078L733.688 219.996C732.436 224.439 734.301 229.171 738.247 231.565L743.81 234.938C749.517 238.399 756.956 235.584 758.942 229.213L766.399 205.285Z" fill="#EAA370"/>
<path d="M915.693 262.291C917.517 258.286 921.69 255.888 926.068 256.329L933.448 257.071C940.564 257.787 944.788 265.376 941.647 271.801L930.275 295.06C928.248 299.207 923.703 301.491 919.166 300.645L912.77 299.453C906.209 298.229 902.54 291.173 905.306 285.099L915.693 262.291Z" fill="#EAA370"/>
<rect x="797.912" y="87.3368" width="185.076" height="287.576" rx="89.121" transform="rotate(20.8985 797.912 87.3368)" fill="#F9B07B"/>
<path d="M911.329 242.625C912.598 239.767 911.392 236.253 908.636 234.777L874.175 216.319C871.419 214.843 868.156 215.962 866.887 218.82L865.549 221.834C864.177 224.922 865.704 228.711 868.817 229.949L874.338 232.145L885.604 237.822L902.26 248.212C905.052 249.954 908.546 248.893 909.875 245.9L911.329 242.625Z" fill="#55433D"/>
<path d="M895.738 284.607C895.893 282.515 894.324 280.668 892.235 280.481L876.133 279.041C874.098 278.859 872.327 280.363 872.176 282.4V282.4C872.012 284.617 873.825 286.507 876.043 286.43L877.647 286.375L883.566 286.741L891.399 288.022C893.579 288.379 895.575 286.808 895.738 284.607V284.607Z" fill="#D19A66"/>
<path d="M770.031 236.698C771.31 235.036 773.711 234.704 775.393 235.957L788.357 245.615C789.995 246.835 790.313 249.137 789.068 250.756V250.756C787.712 252.519 785.101 252.719 783.499 251.184L782.34 250.074L777.683 246.402L770.99 242.136C769.126 240.949 768.685 238.448 770.031 236.698V236.698Z" fill="#D19A66"/>
<path d="M784.674 194.264C785.633 191.288 788.874 189.472 791.913 190.208L829.906 199.415C832.945 200.152 834.631 203.162 833.672 206.138L832.661 209.276C831.625 212.492 827.962 214.3 824.815 213.148L819.236 211.105L807.053 207.829L787.711 204.474C784.469 203.912 782.571 200.792 783.575 197.675L784.674 194.264Z" fill="#55433D"/>
<rect x="796.693" y="212.201" width="28.903" height="18.487" rx="9.24352" transform="rotate(20.8985 796.693 212.201)" fill="#664B2B"/>
<rect x="861.989" y="236.949" width="29.3693" height="20.6542" rx="10.3271" transform="rotate(20.8985 861.989 236.949)" fill="#664B2B"/>
<rect x="856.308" y="252.803" width="29.0211" height="7.4834" rx="3.7417" transform="rotate(20.8985 856.308 252.803)" fill="#D19A66"/>
<rect x="790.832" y="227.553" width="28.903" height="6.16235" rx="3.08117" transform="rotate(20.8985 790.832 227.553)" fill="#D19A66"/>
<path d="M830.171 256.086C830.121 254.209 832.289 253.134 833.752 254.311V254.311C834.273 254.729 834.576 255.362 834.575 256.03L834.567 276.265C834.564 283.078 829.927 289.013 823.319 290.661L816.429 292.379C815.526 292.604 814.571 292.328 813.927 291.656V291.656C812.56 290.229 813.223 287.858 815.133 287.35L824.136 284.957C827.601 284.036 830.046 280.943 830.145 277.357L830.446 266.387L830.171 256.086Z" fill="#D19A66"/>
<path fill-rule="evenodd" clip-rule="evenodd" d="M754.889 198.18L765.445 202.211L744.11 258.085L744.11 258.085L744.11 258.085L748.539 303.752L863.458 347.632L897.119 316.509L897.119 316.509L918.454 260.635L929.01 264.665L900.631 338.989C883.073 384.971 831.564 408.013 785.582 390.456L777.977 387.552C731.995 369.995 708.952 318.486 726.51 272.504L754.889 198.18Z" fill="#55433D"/>
<rect x="770.65" y="285.81" width="94.4166" height="71.8941" rx="35.947" transform="rotate(20.8985 770.65 285.81)" fill="#55433D"/>
<path fill-rule="evenodd" clip-rule="evenodd" d="M789.989 310.785C791.168 320.464 796.794 328.774 805.561 332.121C814.328 335.469 824.061 333.024 831.391 326.593L789.989 310.785Z" fill="#9D6E60"/>
<rect x="753.462" y="325.422" width="98.2704" height="62.9929" transform="rotate(20.8985 753.462 325.422)" fill="#EAA370"/>
<ellipse cx="777.207" cy="400.98" rx="49.1352" ry="32.3713" transform="rotate(20.8985 777.207 400.98)" fill="#EAA370"/>
<path d="M766.399 205.285C767.708 201.084 766.196 196.516 762.638 193.926L756.642 189.561C750.859 185.351 742.653 188.194 740.712 195.078L733.688 219.996C732.436 224.439 734.301 229.171 738.247 231.565L743.81 234.938C749.517 238.399 756.956 235.584 758.942 229.213L766.399 205.285Z" fill="#EAA370"/>
<path d="M915.693 262.291C917.517 258.286 921.69 255.888 926.068 256.329L933.448 257.071C940.564 257.787 944.788 265.376 941.647 271.801L930.275 295.06C928.248 299.207 923.703 301.491 919.166 300.645L912.77 299.453C906.209 298.229 902.54 291.173 905.306 285.099L915.693 262.291Z" fill="#EAA370"/>
<rect x="797.912" y="87.3368" width="185.076" height="287.576" rx="89.121" transform="rotate(20.8985 797.912 87.3368)" fill="#F9B07B"/>
<path d="M911.329 242.625C912.598 239.767 911.392 236.253 908.636 234.777L874.175 216.319C871.419 214.843 868.156 215.962 866.887 218.82L865.549 221.834C864.177 224.922 865.704 228.711 868.817 229.949L874.338 232.145L885.604 237.822L902.26 248.212C905.052 249.954 908.546 248.893 909.875 245.9L911.329 242.625Z" fill="#55433D"/>
<path d="M895.738 284.607C895.893 282.515 894.324 280.668 892.235 280.481L876.133 279.041C874.098 278.859 872.327 280.363 872.176 282.4V282.4C872.012 284.617 873.825 286.507 876.043 286.43L877.647 286.375L883.566 286.741L891.399 288.022C893.579 288.379 895.575 286.808 895.738 284.607V284.607Z" fill="#D19A66"/>
<path d="M770.031 236.698C771.31 235.036 773.711 234.704 775.393 235.957L788.357 245.615C789.995 246.835 790.313 249.137 789.068 250.756V250.756C787.712 252.519 785.101 252.719 783.499 251.184L782.34 250.074L777.683 246.402L770.99 242.136C769.126 240.949 768.685 238.448 770.031 236.698V236.698Z" fill="#D19A66"/>
<path d="M784.674 194.264C785.633 191.288 788.874 189.472 791.913 190.208L829.906 199.415C832.945 200.152 834.631 203.162 833.672 206.138L832.661 209.276C831.625 212.492 827.962 214.3 824.815 213.148L819.236 211.105L807.053 207.829L787.711 204.474C784.469 203.912 782.571 200.792 783.575 197.675L784.674 194.264Z" fill="#55433D"/>
<rect x="796.693" y="212.201" width="28.903" height="18.487" rx="9.24352" transform="rotate(20.8985 796.693 212.201)" fill="#664B2B"/>
<rect x="861.989" y="236.949" width="29.3693" height="20.6542" rx="10.3271" transform="rotate(20.8985 861.989 236.949)" fill="#664B2B"/>
<rect x="856.308" y="252.803" width="29.0211" height="7.4834" rx="3.7417" transform="rotate(20.8985 856.308 252.803)" fill="#D19A66"/>
<rect x="790.832" y="227.553" width="28.903" height="6.16235" rx="3.08117" transform="rotate(20.8985 790.832 227.553)" fill="#D19A66"/>
<path d="M830.171 256.086C830.121 254.209 832.289 253.134 833.752 254.311V254.311C834.273 254.729 834.576 255.362 834.575 256.03L834.567 276.265C834.564 283.078 829.927 289.013 823.319 290.661L816.429 292.379C815.526 292.604 814.571 292.328 813.927 291.656V291.656C812.56 290.229 813.223 287.858 815.133 287.35L824.136 284.957C827.601 284.036 830.046 280.943 830.145 277.357L830.446 266.387L830.171 256.086Z" fill="#D19A66"/>
<path fill-rule="evenodd" clip-rule="evenodd" d="M754.889 198.18L765.445 202.211L744.11 258.085L744.11 258.085L744.11 258.085L748.539 303.752L863.458 347.632L897.119 316.509L897.119 316.509L918.454 260.635L929.01 264.665L900.631 338.989C883.073 384.971 831.564 408.013 785.582 390.456L777.977 387.552C731.995 369.995 708.952 318.486 726.51 272.504L754.889 198.18Z" fill="#55433D"/>
<rect x="770.65" y="285.81" width="94.4166" height="71.8941" rx="35.947" transform="rotate(20.8985 770.65 285.81)" fill="#55433D"/>
<path fill-rule="evenodd" clip-rule="evenodd" d="M789.989 310.785C791.168 320.464 796.794 328.774 805.561 332.121C814.328 335.469 824.061 333.024 831.391 326.593L789.989 310.785Z" fill="#9D6E60"/>
<path fill-rule="evenodd" clip-rule="evenodd" d="M870.739 104.256C829.631 88.4221 783.712 109.13 768.175 150.509L767.555 152.16L950.593 222.662L951.213 221.012C966.75 179.633 946.021 133.253 904.913 117.419L870.739 104.256Z" fill="#B55C36"/>
<rect width="203.448" height="25.5857" rx="7.01482" transform="matrix(0.931608 0.358626 -0.351913 0.937737 764.617 149.719)" fill="#9C4D2C"/>
<path d="M1137.39 480.708C1153.67 495.627 1154.86 521.323 1144.91 532.19C1134.95 543.056 1117.63 534.977 1101.34 520.058C1085.05 505.139 1074.8 486.108 1084.76 475.242C1094.71 464.376 1121.1 465.789 1137.39 480.708Z" fill="#2B452D"/>
<path d="M1208.08 491.609C1212.41 489.427 1214.21 484.187 1212.13 479.804V479.804C1210.02 475.346 1204.69 473.446 1200.23 475.56L1152.56 498.164C1148.25 500.211 1146.14 505.16 1147.65 509.692L1147.73 509.919C1149.55 515.38 1155.8 517.952 1160.94 515.362L1208.08 491.609Z" fill="#D69F6D"/>
<rect width="20.3006" height="77.7207" rx="9.44551" transform="matrix(-0.519913 -0.854219 -0.854219 0.519913 1216.28 461.914)" fill="#D69F6D"/>
<rect width="20.1764" height="80.9842" rx="9.44551" transform="matrix(-0.630641 -0.776075 -0.776075 0.630641 1207.33 435.265)" fill="#D69F6D"/>
<rect width="19.3786" height="75.5641" rx="9.44551" transform="matrix(-0.739665 -0.672975 -0.672975 0.739665 1188.06 415.08)" fill="#D69F6D"/>
<rect width="21.3898" height="55.7499" rx="9.44551" transform="matrix(-0.914464 -0.404667 -0.404667 0.914464 1140.5 424.038)" fill="#D69F6D"/>
<ellipse cx="41.3241" cy="31.8786" rx="41.3241" ry="31.8786" transform="matrix(-0.626803 -0.779178 -0.779178 0.626803 1182.3 498.339)" fill="#D69F6D"/>
<path d="M349.522 788.777C346.852 792.826 347.902 798.266 351.887 801.032V801.032C355.94 803.845 361.506 802.84 364.319 798.787L394.4 755.445C397.124 751.52 396.488 746.178 392.919 743.003L392.739 742.843C388.438 739.016 381.743 739.895 378.575 744.701L349.522 788.777Z" fill="#D69F6D"/>
<rect width="20.3006" height="77.7207" rx="9.44551" transform="matrix(0.876259 0.48184 0.48184 -0.876259 357.2 818.61)" fill="#D69F6D"/>
<rect width="20.1764" height="80.9842" rx="9.44551" transform="matrix(0.933364 0.358932 0.358932 -0.933364 378.233 837.262)" fill="#D69F6D"/>
<rect width="19.3786" height="75.5641" rx="9.44551" transform="matrix(0.976563 0.215232 0.215232 -0.976563 404.994 845.171)" fill="#D69F6D"/>
<rect width="21.3898" height="55.7498" rx="9.44551" transform="matrix(0.994526 -0.104488 -0.104488 -0.994526 441.781 813.715)" fill="#D69F6D"/>
<ellipse cx="41.3241" cy="31.8786" rx="41.3241" ry="31.8786" transform="matrix(0.931581 0.363534 0.363534 -0.931581 368.524 770.104)" fill="#D69F6D"/>
</svg>
